<?xml version="1.0" ?><svg id="compass-route-travel-explore" style="enable-background:new 0 0 15 15;" version="1.1" viewBox="0 0 15 15" xml:space="preserve" xmlns="http://www.w3.org/2000/svg" xmlns:xlink="http://www.w3.org/1999/xlink"><path d="M7.5,0C3.364,0,0,3.364,0,7.5S3.364,15,7.5,15S15,11.636,15,7.5S11.636,0,7.5,0z M7.5,14C3.916,14,1,11.084,1,7.5  S3.916,1,7.5,1S14,3.916,14,7.5S11.084,14,7.5,14z"/><path d="M3.012,11.988l6.283-2.693l2.693-6.283L5.705,5.705L3.012,11.988z M6.255,6.962l1.784,1.784l-3.122,1.338L6.255,6.962z   M8.745,8.038L6.962,6.255l3.122-1.338L8.745,8.038z"/></svg>