<?xml version="1.0" ?><svg data-name="Layer 1" id="Layer_1" viewBox="0 0 32 32" xmlns="http://www.w3.org/2000/svg"><defs><style>.cls-1{fill:#4d4d4d;}</style></defs><title/><path class="cls-1" d="M30.68,19.05l-1.9.64-1.65-9.06,4.24-1.7a1,1,0,1,0-.74-1.86l-5,2A1,1,0,0,0,25,10.18l0,.18-2.39,1.19a1,1,0,0,1-1.05-.09L19.13,9.6a3,3,0,0,0-1.8-.6H14.62a2,2,0,0,0-1.78,1.09L11.05,10a1,1,0,0,0-.5.11l-1.67.83L6,10.22l0-.13a1,1,0,0,0-.55-1l-4-2a1,1,0,0,0-.9,1.78l3.39,1.7-.82,9.06-1.8-.6A1,1,0,1,0,.68,21l3,1A1.19,1.19,0,0,0,4,22a1.1,1.1,0,0,0,.55-.16A1,1,0,0,0,5,21.09l.08-.93,1.29.64a3.07,3.07,0,0,0,1.09,1.89l5.77,4.14a2,2,0,0,0,2.84-.3,2.91,2.91,0,0,0,2.36-.13l5.41-2.7A2.31,2.31,0,0,0,25.08,22a1.71,1.71,0,0,0,0-.32l1.9-.63,0,.12a1,1,0,0,0,.47.68A1,1,0,0,0,28,22a1.19,1.19,0,0,0,.32-.05l3-1a1,1,0,1,0-.64-1.9Zm-22,2.06A1,1,0,0,1,8.38,20a.2.2,0,0,1,.15-.14c.06,0,.14,0,.26.08l6.05,4.37-.33,1,0,0Zm14.26.8-5.41,2.7a1,1,0,0,1-.76.06,2,2,0,0,0-.72-1.92l-6-4.37A2.22,2.22,0,0,0,8,18a2.19,2.19,0,0,0-1.18.84l-1.36-.68a.61.61,0,0,0-.18-.05l.53-5.83,3,.74L9,13a1,1,0,0,0,.45-.11L11.21,12l.65,0-.75,1.51a1,1,0,0,0,.44,1.34l.21.11a3,3,0,0,0,3.83-1h1l6.38,7.29a1.19,1.19,0,0,0,.09.15.26.26,0,0,1,.08.25A.27.27,0,0,1,23,21.91Zm1.36-2.07-6.56-7.5A1,1,0,0,0,17,12H15a1,1,0,0,0-.89.55l-.11.21a1,1,0,0,1-.5.47L14.62,11h2.71a1,1,0,0,1,.6.2l2.48,1.86a3,3,0,0,0,3.14.28l1.87-.93,1.21,6.66Z"/></svg>